<svg id="coralmed" xmlns="http://www.w3.org/2000/svg" viewBox="0 0 272.99 272.99"><defs><style>.cls-1{fill:#ff9e74;}</style></defs><title>myapp_icons</title><path class="cls-1" d="M148.29,271.35h-23.6A20.71,20.71,0,0,1,104,250.66V236.15a8.79,8.79,0,0,0-15-6.22L78.74,240.19a20.71,20.71,0,0,1-29.26,0L32.79,223.51a20.71,20.71,0,0,1,0-29.26L43.05,184a8.8,8.8,0,0,0-6.22-15H22.32A20.71,20.71,0,0,1,1.64,148.29v-23.6A20.71,20.71,0,0,1,22.32,104H36.83a8.79,8.79,0,0,0,6.22-15L32.79,78.73a20.69,20.69,0,0,1,0-29.25L49.48,32.79a20.71,20.71,0,0,1,29.25,0L89,43.05a8.8,8.8,0,0,0,15-6.22V22.32A20.71,20.71,0,0,1,124.69,1.64h23.6A20.71,20.71,0,0,1,169,22.32V36.83a8.79,8.79,0,0,0,15,6.22l10.26-10.26a20.71,20.71,0,0,1,29.25,0l16.69,16.69a20.69,20.69,0,0,1,0,29.25L229.93,89a8.8,8.8,0,0,0,6.22,15h14.51a20.71,20.71,0,0,1,20.69,20.69v23.6A20.71,20.71,0,0,1,250.66,169H236.15a8.8,8.8,0,0,0-6.22,15l10.26,10.26a20.71,20.71,0,0,1,0,29.26l-16.69,16.69a20.71,20.71,0,0,1-29.26,0L184,229.93a8.79,8.79,0,0,0-15,6.22v14.51A20.71,20.71,0,0,1,148.29,271.35ZM95,208.11a28.4,28.4,0,0,1,10.88,2.2,27.54,27.54,0,0,1,17.27,25.84v14.51a1.51,1.51,0,0,0,1.51,1.51h23.6a1.51,1.51,0,0,0,1.51-1.51V236.15a28,28,0,0,1,47.76-19.78l10.26,10.26a1.51,1.51,0,0,0,2.13,0l16.69-16.69a1.51,1.51,0,0,0,0-2.13l-10.26-10.26a28,28,0,0,1,19.78-47.76h14.51a1.51,1.51,0,0,0,1.51-1.51v-23.6a1.51,1.51,0,0,0-1.51-1.51H236.15a28,28,0,0,1-19.78-47.76l10.26-10.26a1.5,1.5,0,0,0,0-2.13L209.94,46.35a1.51,1.51,0,0,0-2.13,0L197.55,56.61A28,28,0,0,1,149.8,36.83V22.32a1.51,1.51,0,0,0-1.51-1.51h-23.6a1.51,1.51,0,0,0-1.51,1.51V36.83A28,28,0,0,1,75.43,56.61L65.17,46.35a1.51,1.51,0,0,0-2.13,0L46.36,63a1.51,1.51,0,0,0,0,2.13L56.61,75.43a28,28,0,0,1-19.78,47.75H22.32a1.51,1.51,0,0,0-1.51,1.51v23.6a1.51,1.51,0,0,0,1.51,1.51H36.83a28,28,0,0,1,19.78,47.76L46.36,207.81a1.51,1.51,0,0,0,0,2.13L63,226.63a1.51,1.51,0,0,0,2.13,0l10.26-10.26A27.59,27.59,0,0,1,95,208.11Z"/><path class="cls-1" d="M137.37,105.56a30.93,30.93,0,1,1-30.93,30.93,31,31,0,0,1,30.93-30.93m0-19.18a50.11,50.11,0,1,0,50.11,50.11,50.11,50.11,0,0,0-50.11-50.11Z"/></svg>