<svg xmlns="http://www.w3.org/2000/svg" viewBox="0 0 272.99 272.99"><defs><style>.cls-1{fill:#4f6b76;}</style></defs><title>myapp_dark</title><g id="dark"><path class="cls-1" d="M136.49,20.91A115.59,115.59,0,1,1,20.91,136.49,115.72,115.72,0,0,1,136.49,20.91m0-18.9A134.49,134.49,0,1,0,271,136.49,134.49,134.49,0,0,0,136.49,2Z"/><path class="cls-1" d="M204.26,124.46H149.11V69.3a9.45,9.45,0,1,0-18.9,0v55.15H75.06a9.45,9.45,0,1,0,0,18.9h55.15v55.15a9.45,9.45,0,1,0,18.9,0V143.36h55.15a9.45,9.45,0,1,0,0-18.9Z"/></g></svg>