<svg xmlns="http://www.w3.org/2000/svg" viewBox="0 0 272.99 272.99"><defs><style>.cls-1{fill:#cdebf1;}</style></defs><title>myapp_lighter</title><g id="lighter"><path class="cls-1" d="M211,271.31H104.39a30.32,30.32,0,0,1-16.25-4.73c-9.1-5.76-17.7-9.07-23.58-9.07-18.76,0-32.64-7.35-39.37-14.22s-43-66.1-7.85-127.13a9.53,9.53,0,0,1,7.42-4.77c.54-.05,31.74-3.31,62.89-31.67,10.85-9.87,14.79-23.85,18.59-37.37,5.11-18.12,11.46-40.67,38.83-40.67,13.38,0,20.54,6.71,24.19,12.34,12.9,19.92,2.14,59.11-5.54,81L230,94.3a9.81,9.81,0,0,1,2.06.21c1.62.35,16.07,3.81,24.14,17.83,5,8.7,6.27,19.14,3.79,31.12,4.77,4.58,10.76,12.35,10.81,22.52,0,8.6-4.06,16.54-12.22,23.66a40.51,40.51,0,0,1,1.12,22.6,35.24,35.24,0,0,1-12.23,18.58c1.33,7,1.76,17.59-4.22,26.57C237.07,266.63,226.22,271.31,211,271.31ZM31.61,130c-24.45,47.46,2.08,94,7.12,99.51,4,4.05,13.78,8.47,25.83,8.47s25,6.53,33.65,12a11.53,11.53,0,0,0,6.18,1.8H211c5.87,0,13.49-.94,16.46-5.4,3.36-5,.95-14.05.12-16.19a9.84,9.84,0,0,1,4.2-12.08c5.2-3,8.29-6.51,9.42-10.78,2-7.68-2.56-15.86-2.61-15.94a9.93,9.93,0,0,1,3-13.13c6.54-4.36,10.13-8.7,10.12-12.22,0-4.44-5.61-9.46-7.64-10.79a9.84,9.84,0,0,1-4-11.1c2.83-9.28,2.71-16.67-.34-22s-8.82-7.73-10.85-8.4l-79.06.8h-.1a9.5,9.5,0,0,1-7.94-4.33,9.91,9.91,0,0,1-.85-9.23c10-24.12,20.54-63.74,12.41-76.28-1.15-1.78-3-3.6-8.26-3.6-12,0-14.81,6.49-20.47,26.57-4.13,14.66-9.27,32.91-24.24,46.53C71.72,120.33,43.14,127.93,31.61,130Z"/></g></svg>