<svg id="light" xmlns="http://www.w3.org/2000/svg" viewBox="0 0 272.99 272.99"><defs><style>.cls-1{fill:#ffbf8d;}</style></defs><title>myapp_icons</title><path class="cls-1" d="M136.49,20.63A115.86,115.86,0,1,1,20.63,136.49,116,116,0,0,1,136.49,20.63m0-18.95A134.81,134.81,0,1,0,271.3,136.49,134.81,134.81,0,0,0,136.49,1.69Z"/><path class="cls-1" d="M147.44,134.22l39.09-39.09a9.47,9.47,0,1,0-13.4-13.4L134,120.82,95,81.73a9.47,9.47,0,1,0-13.4,13.4l39.09,39.09L81.55,173.31A9.47,9.47,0,0,0,95,186.71L134,147.62l39.09,39.09a9.47,9.47,0,1,0,13.4-13.4Z"/></svg>